<svg width="24" height="24" viewBox="0 0 24 24" fill="none" xmlns="http://www.w3.org/2000/svg">
<path d="M14.4293 6.86625C14.8194 6.89963 15.0624 7.16411 15.2019 7.55698C15.4706 8.31533 15.7495 9.0694 16.0148 9.82946C16.5221 11.2828 17.5241 12.2278 18.9641 12.7302C19.6743 12.9775 20.3879 13.2164 21.0929 13.4766C21.8228 13.7462 22.0563 14.454 21.5849 14.9368C21.4565 15.0686 21.2923 15.1499 21.1134 15.2115C20.3673 15.47 19.6272 15.7482 18.8811 16.0084C17.4146 16.5211 16.4563 17.5268 15.9566 18.9887C15.7221 19.6734 15.4783 20.3556 15.237 21.0378C15.0453 21.5804 14.7476 21.8312 14.3086 21.8287C13.9133 21.8261 13.6387 21.5608 13.4453 21.0181C13.1527 20.1939 12.8763 19.3619 12.5486 18.5522C12.0215 17.2495 11.0384 16.4209 9.72505 15.9647C9.01488 15.7182 8.30128 15.4786 7.59625 15.2184C6.8664 14.9487 6.63281 14.2409 7.10426 13.7582C7.23261 13.6263 7.39689 13.545 7.57571 13.4834C8.32182 13.2249 9.06194 12.9467 9.80804 12.6865C11.2746 12.1738 12.2329 11.1681 12.7326 9.7062C12.967 9.02146 13.2109 8.33929 13.4522 7.65712C13.6447 7.11446 13.9416 6.86282 14.4293 6.86625Z" fill="#BEDBFF"/>
<path d="M10.6969 6.45474C10.6644 6.85617 10.4573 7.11894 10.0672 7.26616C9.05326 7.64876 8.24127 8.28557 7.66629 9.21681C7.4926 9.49841 7.3865 9.80569 7.25388 10.1036C7.0896 10.475 6.84232 10.7224 6.4128 10.6993C5.99867 10.677 5.74969 10.4442 5.60252 10.0565C5.21749 9.04392 4.58603 8.21966 3.64228 7.66588C3.33767 7.4887 3.00312 7.36117 2.68312 7.20967C2.34172 7.04876 2.14579 6.79283 2.17231 6.40339C2.19798 6.02678 2.39392 5.76144 2.74472 5.62878C4.09063 5.11864 5.06518 4.23619 5.57428 2.86585C5.71803 2.47726 5.94648 2.1503 6.43504 2.17084C6.89451 2.18967 7.13238 2.461 7.29495 2.87013C7.80148 4.14631 8.66652 5.06986 9.97477 5.5603C10.3701 5.70838 10.7363 5.92493 10.6969 6.45474Z" fill="#2B7FFF"/>
</svg>
